<svg width="117" height="16" viewBox="0 0 117 16" fill="none" xmlns="http://www.w3.org/2000/svg">
<path d="M18.036 2.436L14.526 15H11.556L9.198 6.054L6.732 15L3.78 15.018L0.396 2.436H3.096L5.31 12.192L7.866 2.436H10.674L13.086 12.138L15.318 2.436H18.036ZM19.0335 9.978C19.0335 8.97 19.2315 8.076 19.6275 7.296C20.0355 6.516 20.5815 5.916 21.2655 5.496C21.9615 5.076 22.7355 4.866 23.5875 4.866C24.3315 4.866 24.9795 5.016 25.5315 5.316C26.0955 5.616 26.5455 5.994 26.8815 6.45V5.028H29.4195V15H26.8815V13.542C26.5575 14.01 26.1075 14.4 25.5315 14.712C24.9675 15.012 24.3135 15.162 23.5695 15.162C22.7295 15.162 21.9615 14.946 21.2655 14.514C20.5815 14.082 20.0355 13.476 19.6275 12.696C19.2315 11.904 19.0335 10.998 19.0335 9.978ZM26.8815 10.014C26.8815 9.402 26.7615 8.88 26.5215 8.448C26.2815 8.004 25.9575 7.668 25.5495 7.44C25.1415 7.2 24.7035 7.08 24.2355 7.08C23.7675 7.08 23.3355 7.194 22.9395 7.422C22.5435 7.65 22.2195 7.986 21.9675 8.43C21.7275 8.862 21.6075 9.378 21.6075 9.978C21.6075 10.578 21.7275 11.106 21.9675 11.562C22.2195 12.006 22.5435 12.348 22.9395 12.588C23.3475 12.828 23.7795 12.948 24.2355 12.948C24.7035 12.948 25.1415 12.834 25.5495 12.606C25.9575 12.366 26.2815 12.03 26.5215 11.598C26.7615 11.154 26.8815 10.626 26.8815 10.014ZM34.8147 7.098V11.922C34.8147 12.258 34.8927 12.504 35.0487 12.66C35.2167 12.804 35.4927 12.876 35.8767 12.876H37.0467V15H35.4627C33.3387 15 32.2767 13.968 32.2767 11.904V7.098H31.0887V5.028H32.2767V2.562H34.8147V5.028H37.0467V7.098H34.8147ZM38.2112 10.014C38.2112 8.982 38.4212 8.082 38.8412 7.314C39.2612 6.534 39.8432 5.934 40.5872 5.514C41.3312 5.082 42.1832 4.866 43.1432 4.866C44.3792 4.866 45.3992 5.178 46.2032 5.802C47.0192 6.414 47.5652 7.278 47.8412 8.394H45.1232C44.9792 7.962 44.7332 7.626 44.3852 7.386C44.0492 7.134 43.6292 7.008 43.1252 7.008C42.4052 7.008 41.8352 7.272 41.4152 7.8C40.9952 8.316 40.7852 9.054 40.7852 10.014C40.7852 10.962 40.9952 11.7 41.4152 12.228C41.8352 12.744 42.4052 13.002 43.1252 13.002C44.1452 13.002 44.8112 12.546 45.1232 11.634H47.8412C47.5652 12.714 47.0192 13.572 46.2032 14.208C45.3872 14.844 44.3672 15.162 43.1432 15.162C42.1832 15.162 41.3312 14.952 40.5872 14.532C39.8432 14.1 39.2612 13.5 38.8412 12.732C38.4212 11.952 38.2112 11.046 38.2112 10.014ZM55.3033 4.884C56.0593 4.884 56.7313 5.052 57.3193 5.388C57.9073 5.712 58.3633 6.198 58.6873 6.846C59.0233 7.482 59.1913 8.25 59.1913 9.15V15H56.6713V9.492C56.6713 8.7 56.4733 8.094 56.0773 7.674C55.6813 7.242 55.1413 7.026 54.4573 7.026C53.7613 7.026 53.2093 7.242 52.8013 7.674C52.4053 8.094 52.2073 8.7 52.2073 9.492V15H49.6873V1.68H52.2073V6.27C52.5313 5.838 52.9633 5.502 53.5033 5.262C54.0433 5.01 54.6433 4.884 55.3033 4.884ZM77.1628 2.436L72.5548 15H69.4948L64.8868 2.436H67.5868L71.0428 12.426L74.4808 2.436H77.1628ZM79.9516 3.84C79.5076 3.84 79.1356 3.702 78.8356 3.426C78.5476 3.138 78.4036 2.784 78.4036 2.364C78.4036 1.944 78.5476 1.596 78.8356 1.32C79.1356 1.032 79.5076 0.887999 79.9516 0.887999C80.3956 0.887999 80.7616 1.032 81.0496 1.32C81.3496 1.596 81.4996 1.944 81.4996 2.364C81.4996 2.784 81.3496 3.138 81.0496 3.426C80.7616 3.702 80.3956 3.84 79.9516 3.84ZM81.1936 5.028V15H78.6736V5.028H81.1936ZM83.0354 9.978C83.0354 8.97 83.2334 8.076 83.6294 7.296C84.0374 6.516 84.5894 5.916 85.2854 5.496C85.9814 5.076 86.7554 4.866 87.6074 4.866C88.2554 4.866 88.8734 5.01 89.4614 5.298C90.0494 5.574 90.5174 5.946 90.8654 6.414V1.68H93.4214V15H90.8654V13.524C90.5534 14.016 90.1154 14.412 89.5514 14.712C88.9874 15.012 88.3334 15.162 87.5894 15.162C86.7494 15.162 85.9814 14.946 85.2854 14.514C84.5894 14.082 84.0374 13.476 83.6294 12.696C83.2334 11.904 83.0354 10.998 83.0354 9.978ZM90.8834 10.014C90.8834 9.402 90.7634 8.88 90.5234 8.448C90.2834 8.004 89.9594 7.668 89.5514 7.44C89.1434 7.2 88.7054 7.08 88.2374 7.08C87.7694 7.08 87.3374 7.194 86.9414 7.422C86.5454 7.65 86.2214 7.986 85.9694 8.43C85.7294 8.862 85.6094 9.378 85.6094 9.978C85.6094 10.578 85.7294 11.106 85.9694 11.562C86.2214 12.006 86.5454 12.348 86.9414 12.588C87.3494 12.828 87.7814 12.948 88.2374 12.948C88.7054 12.948 89.1434 12.834 89.5514 12.606C89.9594 12.366 90.2834 12.03 90.5234 11.598C90.7634 11.154 90.8834 10.626 90.8834 10.014ZM105.153 9.798C105.153 10.158 105.129 10.482 105.081 10.77H97.7906C97.8506 11.49 98.1026 12.054 98.5466 12.462C98.9906 12.87 99.5366 13.074 100.185 13.074C101.121 13.074 101.787 12.672 102.183 11.868H104.901C104.613 12.828 104.061 13.62 103.245 14.244C102.429 14.856 101.427 15.162 100.239 15.162C99.2786 15.162 98.4146 14.952 97.6466 14.532C96.8906 14.1 96.2966 13.494 95.8646 12.714C95.4446 11.934 95.2346 11.034 95.2346 10.014C95.2346 8.982 95.4446 8.076 95.8646 7.296C96.2846 6.516 96.8726 5.916 97.6286 5.496C98.3846 5.076 99.2546 4.866 100.239 4.866C101.187 4.866 102.033 5.07 102.777 5.478C103.533 5.886 104.115 6.468 104.523 7.224C104.943 7.968 105.153 8.826 105.153 9.798ZM102.543 9.078C102.531 8.43 102.297 7.914 101.841 7.53C101.385 7.134 100.827 6.936 100.167 6.936C99.5426 6.936 99.0146 7.128 98.5826 7.512C98.1626 7.884 97.9046 8.406 97.8086 9.078H102.543ZM111.42 15.162C110.46 15.162 109.596 14.952 108.828 14.532C108.06 14.1 107.454 13.494 107.01 12.714C106.578 11.934 106.362 11.034 106.362 10.014C106.362 8.994 106.584 8.094 107.028 7.314C107.484 6.534 108.102 5.934 108.882 5.514C109.662 5.082 110.532 4.866 111.492 4.866C112.452 4.866 113.322 5.082 114.102 5.514C114.882 5.934 115.494 6.534 115.938 7.314C116.394 8.094 116.622 8.994 116.622 10.014C116.622 11.034 116.388 11.934 115.92 12.714C115.464 13.494 114.84 14.1 114.048 14.532C113.268 14.952 112.392 15.162 111.42 15.162ZM111.42 12.966C111.876 12.966 112.302 12.858 112.698 12.642C113.106 12.414 113.43 12.078 113.67 11.634C113.91 11.19 114.03 10.65 114.03 10.014C114.03 9.066 113.778 8.34 113.274 7.836C112.782 7.32 112.176 7.062 111.456 7.062C110.736 7.062 110.13 7.32 109.638 7.836C109.158 8.34 108.918 9.066 108.918 10.014C108.918 10.962 109.152 11.694 109.62 12.21C110.1 12.714 110.7 12.966 111.42 12.966Z" fill="#171100"/>
</svg>
